<svg xmlns="http://www.w3.org/2000/svg" viewBox="0 0 455.19 53"><defs><style>.cls-1{fill:#fff;fill-rule:evenodd;}</style></defs><title>Logo_drenajes</title><g id="Layer_2" data-name="Layer 2"><g id="Layer_1-2" data-name="Layer 1"><path class="cls-1" d="M446.77,22.4V20.51a2.56,2.56,0,0,0-1.13-2.1,6.34,6.34,0,0,0-3.78-.87,9.06,9.06,0,0,0-2.48.27,3.94,3.94,0,0,0-1.41.68,1.79,1.79,0,0,0-.62.89,3.54,3.54,0,0,0-.13,1,1.89,1.89,0,0,0,1.32,1.73,17.57,17.57,0,0,0,3.32,1c1.33.29,2.78.59,4.34.89a18.47,18.47,0,0,1,4.35,1.4,9.58,9.58,0,0,1,3.32,2.54,6.44,6.44,0,0,1,1.32,4.24,8.83,8.83,0,0,1-1.32,5.07,9.17,9.17,0,0,1-3.27,3,13.33,13.33,0,0,1-4.13,1.43,23.1,23.1,0,0,1-3.86.38,31.13,31.13,0,0,1-4.61-.36,16.59,16.59,0,0,1-4.37-1.21,9,9,0,0,1-3.27-2.37,5.63,5.63,0,0,1-1.29-3.78V31.57h8v2.65c0,.76.55,1.29,1.65,1.62a14.69,14.69,0,0,0,4.07.48,7.41,7.41,0,0,0,2.4-.32,4.6,4.6,0,0,0,1.46-.76,2.56,2.56,0,0,0,.73-.94,2.51,2.51,0,0,0,.21-.94,2,2,0,0,0-1.32-1.81A15.53,15.53,0,0,0,443,30.49c-1.31-.28-2.74-.58-4.29-.89a18.41,18.41,0,0,1-4.29-1.37,9.38,9.38,0,0,1-3.3-2.51,6.51,6.51,0,0,1-1.32-4.29,10.8,10.8,0,0,1,.54-3.27,7.88,7.88,0,0,1,1.89-3.1,10.28,10.28,0,0,1,3.59-2.32,14.85,14.85,0,0,1,5.59-.92,32.53,32.53,0,0,1,4.26.3,13.31,13.31,0,0,1,4.16,1.21A8.47,8.47,0,0,1,453,15.92a7.31,7.31,0,0,1,1.24,4.43v2Zm-31.31,4.53a16.61,16.61,0,0,0-.27-2.88,8.81,8.81,0,0,0-1-2.84,6,6,0,0,0-2.1-2.16,7.76,7.76,0,0,0-7.1,0,6.21,6.21,0,0,0-2.08,2.16,9.31,9.31,0,0,0-1,2.84,17.59,17.59,0,0,0-.26,2.88,17.91,17.91,0,0,0,.26,2.94,9.31,9.31,0,0,0,1,2.84A6,6,0,0,0,405,34.84a7.92,7.92,0,0,0,7.1,0,5.79,5.79,0,0,0,2.1-2.13,8.81,8.81,0,0,0,1-2.84A16.92,16.92,0,0,0,415.46,26.93Zm8.1,6.48a1.4,1.4,0,0,0,.4.94,1.18,1.18,0,0,0,.9.46h1.94v6.48h-6.42a3.34,3.34,0,0,1-1.22-.27A4.43,4.43,0,0,1,417,39.1a3,3,0,0,1-.37-1.48v-.76a9.43,9.43,0,0,1-3.73,3.81,10.52,10.52,0,0,1-5.29,1.38,15.77,15.77,0,0,1-5.4-.9,11.59,11.59,0,0,1-4.34-2.75,12.92,12.92,0,0,1-2.92-4.72,19.61,19.61,0,0,1-1.05-6.75,17,17,0,0,1,1.22-6.72,13.45,13.45,0,0,1,3.24-4.69A13.21,13.21,0,0,1,403,12.74a16.93,16.93,0,0,1,5.56-.92,10.24,10.24,0,0,1,2.27.27,11.64,11.64,0,0,1,2.27.76,11.51,11.51,0,0,1,2,1.16,7.12,7.12,0,0,1,1.54,1.43V12.85h6.91Zm-55-6.32a14,14,0,0,0,.29,2.81,8.09,8.09,0,0,0,1,2.56,5.54,5.54,0,0,0,1.87,1.89,5.16,5.16,0,0,0,2.83.73,6.06,6.06,0,0,0,3.18-.75,5.75,5.75,0,0,0,2-1.95,7.58,7.58,0,0,0,1-2.67,16.41,16.41,0,0,0,.27-2.94,11.89,11.89,0,0,0-.43-3.26,8.6,8.6,0,0,0-1.24-2.68,6.16,6.16,0,0,0-2-1.8,5.78,5.78,0,0,0-4.91-.25,5,5,0,0,0-1.89,1.43,8.11,8.11,0,0,0-1.37,2.7A14,14,0,0,0,368.56,27.09Zm21.43-8a1.62,1.62,0,0,0-1,.41,1.13,1.13,0,0,0-.51.89V39.78q0,1.24-.09,2.7a11.86,11.86,0,0,1-.54,2.94,10.64,10.64,0,0,1-1.35,2.83,8.47,8.47,0,0,1-2.5,2.4,13.77,13.77,0,0,1-4.08,1.7,23.37,23.37,0,0,1-6,.65,20.36,20.36,0,0,1-4.39-.48,13.73,13.73,0,0,1-4-1.54,9.11,9.11,0,0,1-2.92-2.7,7.4,7.4,0,0,1-1.24-3.91h8.21a5,5,0,0,0,.35,1.08,2.39,2.39,0,0,0,.78.94,4.19,4.19,0,0,0,1.54.65,11.56,11.56,0,0,0,2.62.24,6,6,0,0,0,4.53-1.54c1-1,1.46-2.71,1.46-5V37.24l-.11-.11a14.4,14.4,0,0,1-1.11,1.6,6.77,6.77,0,0,1-1.51,1.4,7,7,0,0,1-2.13,1,10.94,10.94,0,0,1-2.91.35,12.66,12.66,0,0,1-4.86-.92,10.54,10.54,0,0,1-3.92-2.75,13.43,13.43,0,0,1-2.61-4.61,19.87,19.87,0,0,1-1-6.56,19.62,19.62,0,0,1,1-6.5,13.39,13.39,0,0,1,2.61-4.62,10.74,10.74,0,0,1,3.81-2.75,11.5,11.5,0,0,1,4.53-.92,10.15,10.15,0,0,1,3.54.57,8.9,8.9,0,0,1,2.62,1.45,7,7,0,0,1,1.67,2,5.52,5.52,0,0,1,.7,2.11V16.41a3.27,3.27,0,0,1,.43-1.65,4,4,0,0,1,1.11-1.21,4.7,4.7,0,0,1,1.51-.73,6,6,0,0,1,1.65-.24h5.77v6.47Zm-34.77,14.2a1.54,1.54,0,0,0,.49,1.08,1.49,1.49,0,0,0,1.08.48h1.67v6.48h-6.37a3.92,3.92,0,0,1-1.18-.22,4.48,4.48,0,0,1-1.35-.67,4.23,4.23,0,0,1-1.11-1.19,3.26,3.26,0,0,1-.46-1.75V36.32a8.45,8.45,0,0,1-3.43,4.19,9.86,9.86,0,0,1-5.42,1.54,12,12,0,0,1-3.91-.62,8.15,8.15,0,0,1-3.11-1.92,8.89,8.89,0,0,1-2-3.29,13.83,13.83,0,0,1-.73-4.75v-11a1.46,1.46,0,0,0-.43-1,1.23,1.23,0,0,0-.92-.49h-1.89V12.58h6.59a4.35,4.35,0,0,1,3.18,1.72,4.63,4.63,0,0,1,.78,1.51,5.36,5.36,0,0,1,.25,1.62v13a7.06,7.06,0,0,0,.43,2.7,4,4,0,0,0,1.13,1.59,4,4,0,0,0,1.59.78,7.71,7.71,0,0,0,1.76.22,6.9,6.9,0,0,0,1.94-.3,4.92,4.92,0,0,0,1.89-1.05,5.83,5.83,0,0,0,1.43-2,7.67,7.67,0,0,0,.57-3.18V20.56a1.64,1.64,0,0,0-.43-1,1.23,1.23,0,0,0-.92-.51h-1.89V12.58h6.42a4.18,4.18,0,0,1,3,1.34,5,5,0,0,1,1.32,3.62Zm-50,1.73a4.91,4.91,0,0,1-.56,2.23,8.5,8.5,0,0,1-1.46,2,7.52,7.52,0,0,1-2,1.48,4.84,4.84,0,0,1-2.24.57h-6.53V34.43h3.45a1.37,1.37,0,0,0,1-.43,1.26,1.26,0,0,0,.46-.91V11a1.6,1.6,0,0,0-.46-1,1.36,1.36,0,0,0-1-.52h-3.4V2.54h26.34a5,5,0,0,1,2.08.48,7.66,7.66,0,0,1,1.91,1.27,6.67,6.67,0,0,1,1.41,1.78,4.23,4.23,0,0,1,.54,2v6.15h-6.48V11a1.54,1.54,0,0,0-.49-1.06,1.4,1.4,0,0,0-1-.51h-11.5v8.15h11.55V24.4H305.24ZM274.53,19.05a2.43,2.43,0,0,0-1.19.33,1.42,1.42,0,0,0-.75.86L265.73,40.8q-1.35,4-2.32,6.37a12.68,12.68,0,0,1-2.11,3.65,5.16,5.16,0,0,1-2.67,1.64,17.41,17.41,0,0,1-4,.38h-4.48V46.47l2.54.22a14.28,14.28,0,0,0,1.83-.11,3.22,3.22,0,0,0,1.41-.51,3.36,3.36,0,0,0,1-1.27,8.92,8.92,0,0,0,.7-2.32l-7.34-22a2.51,2.51,0,0,0-.7-1,1.54,1.54,0,0,0-1-.43h-2.92V12.58h5.51A4.79,4.79,0,0,1,253,13,6.35,6.35,0,0,1,254.67,14,7.35,7.35,0,0,1,256,15.6a8.73,8.73,0,0,1,.89,1.94l4.75,16.19h.11l4.53-16.46a5.26,5.26,0,0,1,.92-1.81A7.85,7.85,0,0,1,268.7,14a7.69,7.69,0,0,1,1.89-1,5.78,5.78,0,0,1,2-.37h4.75v6.47ZM221.9,22.4V20.51a2.56,2.56,0,0,0-1.13-2.1,6.34,6.34,0,0,0-3.78-.87,9.11,9.11,0,0,0-2.48.27,3.94,3.94,0,0,0-1.41.68,1.79,1.79,0,0,0-.62.89,3.54,3.54,0,0,0-.13,1,1.89,1.89,0,0,0,1.32,1.73,17.57,17.57,0,0,0,3.32,1c1.33.29,2.78.59,4.34.89a18.47,18.47,0,0,1,4.35,1.4A9.58,9.58,0,0,1,229,27.93a6.44,6.44,0,0,1,1.32,4.24A8.83,8.83,0,0,1,229,37.24a9.17,9.17,0,0,1-3.27,3,13.33,13.33,0,0,1-4.13,1.43,23.1,23.1,0,0,1-3.86.38,31.13,31.13,0,0,1-4.61-.36,16.59,16.59,0,0,1-4.37-1.21,9.11,9.11,0,0,1-3.27-2.37,5.63,5.63,0,0,1-1.29-3.78V31.57h8v2.65c0,.76.55,1.29,1.65,1.62a14.69,14.69,0,0,0,4.07.48,7.41,7.41,0,0,0,2.4-.32,4.6,4.6,0,0,0,1.46-.76,2.46,2.46,0,0,0,.73-.94,2.51,2.51,0,0,0,.21-.94,2,2,0,0,0-1.32-1.81,15.53,15.53,0,0,0-3.29-1.06c-1.31-.28-2.74-.58-4.29-.89a18.41,18.41,0,0,1-4.29-1.37,9.25,9.25,0,0,1-3.29-2.51A6.46,6.46,0,0,1,205,21.43a10.8,10.8,0,0,1,.54-3.27,7.88,7.88,0,0,1,1.89-3.1A10.28,10.28,0,0,1,211,12.74a14.85,14.85,0,0,1,5.59-.92,32.53,32.53,0,0,1,4.26.3A13.31,13.31,0,0,1,225,13.33a8.47,8.47,0,0,1,3.13,2.59,7.25,7.25,0,0,1,1.24,4.43v2Zm-27.63,1.67a8,8,0,0,0-.76-2.89,6.22,6.22,0,0,0-1.4-1.86,4.9,4.9,0,0,0-1.79-1,6.63,6.63,0,0,0-1.89-.29,5.25,5.25,0,0,0-4.12,1.59,7.77,7.77,0,0,0-1.76,4.45Zm7.44,8.8a12.49,12.49,0,0,1-2.13,4.34,12,12,0,0,1-6.75,4.38,16.3,16.3,0,0,1-3.75.46,19.71,19.71,0,0,1-5.64-.79,11,11,0,0,1-4.53-2.62,12.44,12.44,0,0,1-3-4.85,21.79,21.79,0,0,1-1.11-7.45c0-.58,0-1.33.13-2.27a16.24,16.24,0,0,1,.62-3,17,17,0,0,1,1.41-3.27,11,11,0,0,1,2.45-3,12.15,12.15,0,0,1,3.78-2.16,15.37,15.37,0,0,1,5.37-.84,17.86,17.86,0,0,1,4.48.62,10.67,10.67,0,0,1,4.38,2.38,13.32,13.32,0,0,1,3.32,4.83,20.44,20.44,0,0,1,1.32,8V29h-19.7a15.75,15.75,0,0,0,.27,2,6.83,6.83,0,0,0,.89,2.32,5.49,5.49,0,0,0,2,1.92,7.08,7.08,0,0,0,3.59.78,6.16,6.16,0,0,0,3-.78,3.72,3.72,0,0,0,1.86-2.35ZM162.36,4.64a4.48,4.48,0,0,1,1.35-3.29,4.62,4.62,0,0,1,6.53,0,4.48,4.48,0,0,1,1.35,3.29,4.42,4.42,0,0,1-1.35,3.24,4.62,4.62,0,0,1-6.53,0A4.42,4.42,0,0,1,162.36,4.64Zm2.38,15.76a1.29,1.29,0,0,0-.46-.89,1.33,1.33,0,0,0-.89-.46H161.5V12.58h5.13a4.69,4.69,0,0,1,2.35.59,6.36,6.36,0,0,1,1.78,1.46,6.73,6.73,0,0,1,1.13,1.89,5.16,5.16,0,0,1,.41,1.89v25.9a13.27,13.27,0,0,1-.63,4.51,5.45,5.45,0,0,1-1.8,2.59A6.53,6.53,0,0,1,167,52.57a25.31,25.31,0,0,1-3.88.27h-3.51V45.28h3a4,4,0,0,0,.64-.05,1.6,1.6,0,0,0,.73-.3,1.84,1.84,0,0,0,.6-.78,3.8,3.8,0,0,0,.24-1.51Zm-18.46,6.53a16.61,16.61,0,0,0-.27-2.88,8.81,8.81,0,0,0-1-2.84,6.19,6.19,0,0,0-2.1-2.16,6.63,6.63,0,0,0-3.54-.86,6.56,6.56,0,0,0-3.56.86,6.12,6.12,0,0,0-2.08,2.16,8.81,8.81,0,0,0-1,2.84,16.61,16.61,0,0,0-.27,2.88,16.92,16.92,0,0,0,.27,2.94,8.81,8.81,0,0,0,1,2.84,5.89,5.89,0,0,0,2.08,2.13,6.65,6.65,0,0,0,3.56.84,6.72,6.72,0,0,0,3.54-.84,5.94,5.94,0,0,0,2.1-2.13,8.81,8.81,0,0,0,1-2.84A16.92,16.92,0,0,0,146.28,26.93Zm8.09,6.48a1.41,1.41,0,0,0,.41.94,1.17,1.17,0,0,0,.89.46h1.94v6.48h-6.42A3.29,3.29,0,0,1,150,41a4.37,4.37,0,0,1-1.25-.76,4.28,4.28,0,0,1-.94-1.16,3,3,0,0,1-.38-1.48v-.76a9.34,9.34,0,0,1-3.72,3.81,10.52,10.52,0,0,1-5.29,1.38,15.77,15.77,0,0,1-5.4-.9,11.71,11.71,0,0,1-4.35-2.75,12.77,12.77,0,0,1-2.91-4.72,19.61,19.61,0,0,1-1-6.75,17,17,0,0,1,1.21-6.72,13.45,13.45,0,0,1,3.24-4.69,13.25,13.25,0,0,1,4.67-2.78,16.89,16.89,0,0,1,5.56-.92,10.31,10.31,0,0,1,2.27.27A12.14,12.14,0,0,1,145.93,14a7.37,7.37,0,0,1,1.54,1.43V12.85h6.9ZM93.27,20.67a1.65,1.65,0,0,0-.46-1.08,1.29,1.29,0,0,0-1-.54H90V12.58h7.08a2.36,2.36,0,0,1,1.24.35,4.74,4.74,0,0,1,1.08.89,4.83,4.83,0,0,1,.78,1.18,3.11,3.11,0,0,1,.3,1.3v1a13.66,13.66,0,0,1,1-1.59,8.92,8.92,0,0,1,1.7-1.81,9.94,9.94,0,0,1,2.53-1.46,9.65,9.65,0,0,1,3.54-.59,12.32,12.32,0,0,1,3.94.62,8.54,8.54,0,0,1,5.26,4.83,10.12,10.12,0,0,1,.79,4.16V33.19a1.71,1.71,0,0,0,.43,1.08,1.24,1.24,0,0,0,1,.54h1.83v6.48h-6.09a3.32,3.32,0,0,1-1.76-.51,5.89,5.89,0,0,1-1.48-1.3,6.6,6.6,0,0,1-1.06-1.75,4.9,4.9,0,0,1-.4-1.89v-12c0-.54,0-1.14-.08-1.78a4.49,4.49,0,0,0-.57-1.84,4,4,0,0,0-1.48-1.46,5.55,5.55,0,0,0-2.78-.59,5.82,5.82,0,0,0-4.24,1.67,6.7,6.7,0,0,0-1.7,5V35.89a4.83,4.83,0,0,1-.4,1.86,6.89,6.89,0,0,1-1.08,1.73,6.34,6.34,0,0,1-1.54,1.3,3.38,3.38,0,0,1-1.73.51H90V34.81h1.79a1.34,1.34,0,0,0,1-.48,1.49,1.49,0,0,0,.46-1Zm-13.44,3.4a8.19,8.19,0,0,0-.75-2.89,6.24,6.24,0,0,0-1.41-1.86,4.86,4.86,0,0,0-1.78-1A6.74,6.74,0,0,0,74,18a5.28,5.28,0,0,0-4.13,1.59,7.83,7.83,0,0,0-1.75,4.45Zm7.45,8.8a12.49,12.49,0,0,1-2.13,4.34,12.18,12.18,0,0,1-3.1,2.84,12.4,12.4,0,0,1-3.65,1.54,16.43,16.43,0,0,1-3.75.46A19.66,19.66,0,0,1,69,41.26a10.9,10.9,0,0,1-4.53-2.62,12.57,12.57,0,0,1-3-4.85,22.05,22.05,0,0,1-1.1-7.45c0-.58,0-1.33.13-2.27a16.26,16.26,0,0,1,2-6.29,11,11,0,0,1,2.45-3,12.15,12.15,0,0,1,3.78-2.16,15.29,15.29,0,0,1,5.37-.84,17.92,17.92,0,0,1,4.48.62A10.63,10.63,0,0,1,83,14.82a13.08,13.08,0,0,1,3.32,4.83,20.42,20.42,0,0,1,1.33,8V29H67.9c0,.54.13,1.21.27,2a7,7,0,0,0,.89,2.32,5.52,5.52,0,0,0,2,1.92,7.06,7.06,0,0,0,3.59.78,6.22,6.22,0,0,0,3-.78,3.72,3.72,0,0,0,1.86-2.35ZM42,20.51a1.43,1.43,0,0,0-.43-1,1.31,1.31,0,0,0-1-.46H38.76V12.58h5.83a4.33,4.33,0,0,1,1.59.32,5.46,5.46,0,0,1,1.51.89,5.08,5.08,0,0,1,1.11,1.3,2.93,2.93,0,0,1,.43,1.48v1h.11c.39-.72.81-1.42,1.24-2.1a8.32,8.32,0,0,1,1.56-1.84,7.14,7.14,0,0,1,2.13-1.29,7.82,7.82,0,0,1,2.95-.49q.38,0,.72,0a6.26,6.26,0,0,1,.73.08v7.66a4.9,4.9,0,0,0-1.05-.11H56.51a8.51,8.51,0,0,0-3.56.63,5.35,5.35,0,0,0-2.1,1.61,5.64,5.64,0,0,0-1,2.22,11,11,0,0,0-.27,2.4v15H42ZM12.79,34.6h6.8a7.23,7.23,0,0,0,4.16-1.14,8.5,8.5,0,0,0,2.7-3,13.87,13.87,0,0,0,1.48-4.18,24.2,24.2,0,0,0,.46-4.72,19.86,19.86,0,0,0-.92-6.75,9.52,9.52,0,0,0-2.24-3.72,6,6,0,0,0-2.88-1.57,14.71,14.71,0,0,0-2.86-.32h-6.7ZM4.86,10.47a1.2,1.2,0,0,0-.41-.84,1.18,1.18,0,0,0-.83-.4H0V2.54H20.89a17,17,0,0,1,5.72.86,14.09,14.09,0,0,1,4.18,2.29A12.67,12.67,0,0,1,33.68,9,18.29,18.29,0,0,1,35.46,13a24.28,24.28,0,0,1,.92,4.13A30.53,30.53,0,0,1,36.65,21a34.28,34.28,0,0,1-.3,4.37,25.69,25.69,0,0,1-1,4.59,22.21,22.21,0,0,1-1.92,4.31,13.75,13.75,0,0,1-7.23,6.1,15.88,15.88,0,0,1-5.62.92H0V34.54H3.72a1,1,0,0,0,.79-.38,1.18,1.18,0,0,0,.35-.8Z"/></g></g></svg>