<svg xmlns="http://www.w3.org/2000/svg" viewBox="0 0 300 54.5"><defs><style>.cls-1{fill:#06326b;fill-rule:evenodd;}.cls-2{fill:#f1cf00;}.cls-3{fill:#009bdb;}</style></defs><title>Logo_DREFSA_h</title><g id="Layer_2" data-name="Layer 2"><g id="Layer_1-2" data-name="Layer 1"><path class="cls-1" d="M294.23,38.8a2.7,2.7,0,0,0,1.16,1.41,3.23,3.23,0,0,0,1.78.57H300v6.79h-6.9A6.15,6.15,0,0,1,288.91,46a7.67,7.67,0,0,1-2.38-3.68l-1-3.17h-15l-1,3.17A8,8,0,0,1,267.2,46a6,6,0,0,1-4.15,1.53h-6.91V40.78h2.94a3,3,0,0,0,1.7-.57,2.75,2.75,0,0,0,1.13-1.36L272.84,6.94h10.24Zm-21.39-6.62h10.35l-5-16.08H278ZM230.45,34.5v3.39a2.63,2.63,0,0,0,.59,1.73,4.68,4.68,0,0,0,1.56,1.16,8.14,8.14,0,0,0,2.26.65,18.74,18.74,0,0,0,2.78.2,20.37,20.37,0,0,0,3-.23,10.16,10.16,0,0,0,2.72-.79,5.17,5.17,0,0,0,2-1.59,4.3,4.3,0,0,0,.76-2.66,3.44,3.44,0,0,0-.53-2,4.27,4.27,0,0,0-1.53-1.33,11.51,11.51,0,0,0-2.35-.93c-.91-.27-1.89-.53-2.94-.79l-4.36-1c-1.66-.38-3.26-.79-4.81-1.25a13.41,13.41,0,0,1-4.1-1.95,9.59,9.59,0,0,1-2.89-3.34,11.41,11.41,0,0,1-1.1-5.4,13.45,13.45,0,0,1,.25-2.49,12,12,0,0,1,.88-2.75,11.82,11.82,0,0,1,1.72-2.71,10.13,10.13,0,0,1,2.86-2.32,17.44,17.44,0,0,1,4.19-1.62,23.51,23.51,0,0,1,5.72-.62,20.17,20.17,0,0,1,7.33,1.19,14.8,14.8,0,0,1,4.89,3,11.16,11.16,0,0,1,2.72,3.88,10.63,10.63,0,0,1,.85,4v3.39h-8.27V17.91a4.08,4.08,0,0,0-.39-1.66,4.58,4.58,0,0,0-1.36-1.65,7.8,7.8,0,0,0-2.52-1.24,13.37,13.37,0,0,0-3.88-.48,12.52,12.52,0,0,0-2.46.25,8.07,8.07,0,0,0-2.29.82,4.92,4.92,0,0,0-1.67,1.5,4,4,0,0,0-.65,2.3,4,4,0,0,0,.42,1.95,3.63,3.63,0,0,0,1.08,1.21,4.6,4.6,0,0,0,1.41.68l1.39.4,9.9,2.43a33.06,33.06,0,0,1,4,1.25,11.55,11.55,0,0,1,3.4,2,9.17,9.17,0,0,1,2.35,3.11,10.82,10.82,0,0,1,.87,4.58,13.31,13.31,0,0,1-.93,5.24,11.21,11.21,0,0,1-2.43,3.65,12.74,12.74,0,0,1-3.31,2.35,19.24,19.24,0,0,1-3.6,1.33,21.29,21.29,0,0,1-3.31.59c-1,.1-1.83.14-2.43.14a29.4,29.4,0,0,1-7.36-.82,19,19,0,0,1-5.26-2.12,9.46,9.46,0,0,1-3.14-3,6.58,6.58,0,0,1-1.05-3.51V34.5Zm-31,6.45a5.1,5.1,0,0,1-.6,2.35,8.47,8.47,0,0,1-1.53,2.12A7.83,7.83,0,0,1,195.22,47a5.07,5.07,0,0,1-2.35.6H186V40.38h3.63a1.47,1.47,0,0,0,1-.45,1.31,1.31,0,0,0,.48-1V15.82a1.64,1.64,0,0,0-.48-1.1,1.4,1.4,0,0,0-1-.54H186V6.94h27.62a5.17,5.17,0,0,1,2.18.51,7.89,7.89,0,0,1,2,1.33,7.1,7.1,0,0,1,1.47,1.86,4.42,4.42,0,0,1,.57,2.13v6.45h-6.8V15.76a1.65,1.65,0,0,0-.5-1.1,1.49,1.49,0,0,0-1.08-.54H199.44v8.55h12.11v7.18H199.44Zm-47.6-.57a1.45,1.45,0,0,0,1-.45,1.31,1.31,0,0,0,.48-1V15.82a1.64,1.64,0,0,0-.48-1.1,1.39,1.39,0,0,0-1-.54h-3.57V6.94h27.62a5.21,5.21,0,0,1,2.18.51,8.07,8.07,0,0,1,2,1.33,7.1,7.1,0,0,1,1.47,1.86,4.52,4.52,0,0,1,.56,2.13v6.45h-6.79V15.76a1.62,1.62,0,0,0-.51-1.1,1.48,1.48,0,0,0-1.07-.54H161.63v8.55h12.11v7.18H161.63V40.38h12.79a1.81,1.81,0,0,0,1.22-.54,1.54,1.54,0,0,0,.59-1.16V35.29H183V42A3.79,3.79,0,0,1,182.4,44a7.17,7.17,0,0,1-1.58,1.78,8.38,8.38,0,0,1-2.1,1.28,5.61,5.61,0,0,1-2.2.48h-28.3V40.38ZM126.6,24.82a8,8,0,0,0,5-1.25c1.08-.83,1.62-2.26,1.62-4.3a7.42,7.42,0,0,0-.23-1.72,4.19,4.19,0,0,0-.88-1.73,4.93,4.93,0,0,0-1.81-1.33,7.21,7.21,0,0,0-3-.54H120.6V24.82Zm14,16h4.92v6.79h-4.69a6.75,6.75,0,0,1-2.49-.46A10.34,10.34,0,0,1,136.08,46a12.82,12.82,0,0,1-1.92-1.58,11,11,0,0,1-1.45-1.73l-7.75-11H120.6v9.62a5.14,5.14,0,0,1-.53,2.23,7.8,7.8,0,0,1-3.4,3.48,4.73,4.73,0,0,1-2.18.57h-7.3V40.78h3.06a2.14,2.14,0,0,0,1.36-.57,1.61,1.61,0,0,0,.67-1.24V16.84a3,3,0,0,0-.82-1.92,2.32,2.32,0,0,0-1.78-1h-2.49v-7h21.68a14.17,14.17,0,0,1,6.56,1.3,11.35,11.35,0,0,1,3.88,3.14,10.53,10.53,0,0,1,1.86,3.79,13.69,13.69,0,0,1,.49,3.25,23.71,23.71,0,0,1-.29,3.57,11.35,11.35,0,0,1-1.16,3.56,9.25,9.25,0,0,1-2.52,3,11,11,0,0,1-4.35,2ZM79.4,40.55h7.13a7.61,7.61,0,0,0,4.36-1.19,8.92,8.92,0,0,0,2.83-3.11,14.52,14.52,0,0,0,1.56-4.39,25.79,25.79,0,0,0,.48-4.95,21,21,0,0,0-1-7.07,10.11,10.11,0,0,0-2.35-3.91,6.34,6.34,0,0,0-3-1.64,15.32,15.32,0,0,0-3-.34h-7ZM71.09,15.26A1.51,1.51,0,0,0,69.78,14H66v-7h21.9a18,18,0,0,1,6,.9,14.81,14.81,0,0,1,4.39,2.41,13.57,13.57,0,0,1,3,3.48,19.1,19.1,0,0,1,1.86,4.13,24.36,24.36,0,0,1,1,4.33,33.5,33.5,0,0,1,.28,4.1,37.61,37.61,0,0,1-.31,4.58A26.73,26.73,0,0,1,103,35.68a23,23,0,0,1-2,4.53,14.57,14.57,0,0,1-7.58,6.4,16.65,16.65,0,0,1-5.89,1H66V40.49H69.9a1.12,1.12,0,0,0,.82-.39,1.27,1.27,0,0,0,.37-.85Z"/><path class="cls-2" d="M46.58,20.75h0A20.64,20.64,0,1,0,33.11,46.64,20.64,20.64,0,0,0,46.58,20.75"/><path class="cls-1" d="M46.54,20.76h0a20.64,20.64,0,1,0-13.47,25.9,20.64,20.64,0,0,0,13.47-25.9m1.83-.56h0l4.13-1.31a26.78,26.78,0,0,1,.07,16.26l-4.07-1.3A23.06,23.06,0,0,1,47,37.44l3.81,2A26.81,26.81,0,0,1,39.29,50.94l-2-3.81a22.61,22.61,0,0,1-3.61,1.49l1.27,4h0a26.71,26.71,0,0,1-16.26,0L20,48.61a22.09,22.09,0,0,1-3.59-1.49l-2,3.81A26.76,26.76,0,0,1,2.91,39.41l3.82-2a23.52,23.52,0,0,1-1.49-3.64l-4,1.26h0a27.66,27.66,0,0,1-.06-16.24l4,1.31a22.09,22.09,0,0,1,1.49-3.59l-3.81-2A26.86,26.86,0,0,1,14.41,3l2,3.81A22.61,22.61,0,0,1,20,5.34l-1.27-4h0v0A26.79,26.79,0,0,1,35,1.25l-1.3,4.08a24.58,24.58,0,0,1,3.6,1.49l2-3.81A26.82,26.82,0,0,1,50.76,14.52l-3.83,2a16.09,16.09,0,0,1,1.44,3.68Z"/><path class="cls-3" d="M31.11,28.92c0,2.73-1.83,3.8-4.09,3.8s-4.08-1.07-4.08-3.8S27,20.57,27,20.57s4.09,5.63,4.09,8.35"/><path class="cls-1" d="M22.24,18.17a6.65,6.65,0,0,0-.79,0c-.95.1-1.48.6-1.29,2.76h.9V22.6H14.2V21h.89c-.19-3.45.14-5.49,1.34-6.59s2.95-1.24,5.81-1V12.25h1.62v7H22.24ZM15.38,33.84V23.39h4.5V33.84Zm9.26-20.37H34.87v4.58H24.64Z"/><path class="cls-1" d="M32.5,35.63a4.92,4.92,0,0,0,.79,0c1-.1,1.48-.59,1.29-2.75h-.9V31.19h6.87v1.66h-.89c.18,3.45-.15,5.49-1.34,6.59s-3,1.23-5.82,1v1.08H30.88v-7H32.5ZM39.36,20V30.4H34.87V20ZM30.1,40.33H19.88V35.74H30.1Z"/><path class="cls-1" d="M47.92,52h.36a1.69,1.69,0,0,0,.42,0,.24.24,0,0,0,.14-.1.35.35,0,0,0,0-.18.25.25,0,0,0-.07-.19.26.26,0,0,0-.18-.09h-.72Zm-.48,1.36V51h1a1.81,1.81,0,0,1,.55.06.51.51,0,0,1,.27.23.67.67,0,0,1,.11.37.61.61,0,0,1-.16.44.72.72,0,0,1-.46.22,1,1,0,0,1,.25.2,2.26,2.26,0,0,1,.27.38l.29.46H49l-.34-.52a3.68,3.68,0,0,0-.26-.34.33.33,0,0,0-.14-.1.7.7,0,0,0-.24,0h-.1v1Z"/><path class="cls-1" d="M48.37,54.21a2,2,0,1,0-2-2,2,2,0,0,0,2,2m0,.29a2.27,2.27,0,1,0-2.27-2.26A2.26,2.26,0,0,0,48.37,54.5Z"/></g></g></svg>